<svg width="30" height="30" viewBox="0 0 30 30" fill="none" xmlns="http://www.w3.org/2000/svg">
<path d="M15.0009 30C12.9771 30 11.0125 29.6028 9.16123 28.8209C7.37463 28.066 5.77137 26.984 4.39279 25.6072C3.016 24.2304 1.93398 22.6254 1.17908 20.8388C0.39722 18.9893 0 17.0247 0 15.0009C0 12.9771 0.39722 11.0125 1.17908 9.16122C1.93398 7.37463 3.016 5.77137 4.39279 4.39279C5.76958 3.0142 7.37463 1.93398 9.16123 1.17908C11.0107 0.39722 12.9753 0 15.0009 0C17.0265 0 18.9893 0.39722 20.8406 1.17908C22.6272 1.93398 24.2304 3.016 25.609 4.39279C26.9858 5.76958 28.0678 7.37463 28.8227 9.16122C29.6046 11.0107 30.0018 12.9753 30.0018 15.0009C30.0018 17.0265 29.6046 18.9893 28.8227 20.8406C28.0678 22.6272 26.9858 24.2304 25.609 25.609C24.2322 26.9858 22.6272 28.0678 20.8406 28.8227C18.9893 29.6028 17.0247 30 15.0009 30ZM15.0009 1.55114C13.1855 1.55114 11.4241 1.90702 9.76694 2.60799C8.16548 3.2856 6.72758 4.25439 5.49278 5.49098C4.25798 6.72578 3.2874 8.16548 2.60979 9.76514C1.90881 11.4223 1.55293 13.1838 1.55293 14.9991C1.55293 16.8145 1.90881 18.5759 2.60979 20.2331C3.2874 21.8345 4.25619 23.2724 5.49278 24.5072C6.72758 25.742 8.16728 26.7126 9.76694 27.3902C11.4241 28.0912 13.1855 28.4471 15.0009 28.4471C16.8162 28.4471 18.5777 28.0912 20.2349 27.3902C21.8363 26.7126 23.2742 25.7438 24.509 24.5072C25.7438 23.2724 26.7144 21.8345 27.392 20.2331C28.093 18.5759 28.4489 16.8145 28.4489 14.9991C28.4489 13.1838 28.093 11.4223 27.392 9.76514C26.7144 8.16368 25.7456 6.72578 24.509 5.49098C23.2742 4.25619 21.8363 3.2856 20.2349 2.60799C18.5777 1.90702 16.8162 1.55114 15.0009 1.55114Z" fill="white"/>
<path d="M15.0009 30C12.1089 30 9.75616 27.6472 9.75616 24.7553C9.75616 22.2677 7.73231 20.2438 5.24474 20.2438C2.35277 20.2438 0 17.8911 0 15.0009C0 12.1089 2.35277 9.75616 5.24474 9.75616C7.73231 9.75616 9.75616 7.73231 9.75616 5.24474C9.75616 2.35276 12.1089 0 15.0009 0C17.8929 0 20.2456 2.35276 20.2456 5.24474C20.2456 7.73231 22.2695 9.75616 24.7571 9.75616C27.649 9.75616 30.0018 12.1089 30.0018 15.0009C30.0018 17.8929 27.649 20.2456 24.7571 20.2456C22.2695 20.2456 20.2456 22.2695 20.2456 24.7571C20.2438 27.6472 17.8911 30 15.0009 30ZM15.0009 0.731532C12.5133 0.731532 10.4895 2.75538 10.4895 5.24295C10.4895 8.13492 8.13672 10.4877 5.24474 10.4877C2.75717 10.4877 0.733329 12.5115 0.733329 14.9991C0.733329 17.4867 2.75717 19.5105 5.24474 19.5105C8.13672 19.5105 10.4895 21.8633 10.4895 24.7553C10.4895 27.2428 12.5133 29.2667 15.0009 29.2667C17.4885 29.2667 19.5123 27.2428 19.5123 24.7553C19.5123 21.8633 21.8651 19.5105 24.7571 19.5105C27.2446 19.5105 29.2685 17.4867 29.2685 14.9991C29.2685 12.5115 27.2446 10.4877 24.7571 10.4877C21.8651 10.4877 19.5123 8.13492 19.5123 5.24295C19.5123 2.75538 17.4885 0.731532 15.0009 0.731532Z" fill="white"/>
<path d="M21.6602 27.0757C20.2133 27.0757 18.8527 26.5132 17.8299 25.4887C16.2698 23.9285 13.7301 23.9285 12.1682 25.4887C11.1455 26.5114 9.78489 27.0757 8.33801 27.0757C6.89112 27.0757 5.53051 26.5132 4.5078 25.4887C3.48509 24.466 2.92072 23.1053 2.92072 21.6585C2.92072 20.2116 3.48689 18.8545 4.5096 17.83C5.26629 17.0733 5.68148 16.0686 5.68148 14.9992C5.68148 13.9297 5.26449 12.925 4.5096 12.1683C2.39768 10.0564 2.39768 6.61981 4.5096 4.50969C5.5323 3.48698 6.89292 2.92261 8.3398 2.92261C9.78669 2.92261 11.1473 3.48519 12.17 4.50969C13.7301 6.06981 16.2698 6.06981 17.8317 4.50969C19.9437 2.39777 23.3802 2.39777 25.4904 4.50969C26.5131 5.5324 27.0774 6.89301 27.0774 8.3399C27.0774 9.78679 26.5149 11.1474 25.4904 12.1701C24.7337 12.9268 24.3185 13.9315 24.3185 15.001C24.3185 16.0704 24.7355 17.0751 25.4904 17.8318C27.6023 19.9438 27.6023 23.3803 25.4904 25.4905C24.4677 26.5132 23.107 27.0757 21.6602 27.0757ZM15.0009 22.9076C16.3885 22.9076 17.7742 23.4361 18.8311 24.4911C19.5878 25.2478 20.5925 25.663 21.662 25.663C22.7314 25.663 23.7361 25.246 24.4928 24.4911C26.0529 22.931 26.0529 20.3913 24.4928 18.8294C23.4701 17.8067 22.9057 16.4461 22.9057 14.9992C22.9057 13.5523 23.4683 12.1917 24.4928 11.169C25.2495 10.4123 25.6647 9.40754 25.6647 8.3381C25.6647 7.26866 25.2477 6.26393 24.4928 5.50723C22.9327 3.94711 20.393 3.94711 18.8311 5.50723C16.7174 7.62095 13.2826 7.62095 11.1707 5.50903C10.414 4.75234 9.40924 4.33714 8.3398 4.33714C7.27036 4.33714 6.26563 4.75413 5.50894 5.50903C3.94881 7.06915 3.94881 9.60885 5.50894 11.1708C6.53164 12.1935 7.09602 13.5541 7.09602 15.001C7.09602 16.4479 6.53344 17.8085 5.50894 18.8312C4.75224 19.5879 4.33705 20.5926 4.33705 21.662C4.33705 22.7315 4.75404 23.7362 5.50894 24.4929C6.26563 25.2496 7.27036 25.6648 8.3398 25.6648C9.40924 25.6648 10.414 25.2478 11.1707 24.4929C12.2257 23.4361 13.6133 22.9076 15.0009 22.9076Z" fill="white"/>
<path d="M14.9326 10.9046C14.7744 10.5343 14.4958 10.2719 14.0932 10.1137L12.3264 9.41096C10.8741 10.0958 9.87835 11.1868 9.28342 12.6984C9.1612 13.0147 9.05695 13.331 8.98685 13.6474C9.31937 13.6474 9.63391 13.7175 9.9844 13.8595L12.2581 14.7743C12.6607 14.9145 13.0274 14.9145 13.394 14.7743C13.7607 14.6341 14.0231 14.3699 14.1813 13.9835L14.9685 12.0315C15.1249 11.6595 15.1069 11.273 14.9326 10.9046ZM12.5546 20.0119L15.4574 21.173C17.4165 21.0328 18.9371 20.1539 20.0569 18.5704C20.0389 18.4302 20.0048 18.272 19.9347 18.0779C19.7603 17.7094 19.4799 17.4273 19.0773 17.2871L16.9438 16.4081C16.8881 16.4369 16.8324 16.4531 16.7839 16.4585C16.7174 16.4764 16.6473 16.4872 16.5754 16.4872C16.1476 16.4872 15.7989 16.1385 15.7989 15.7072C15.7989 15.2758 16.1458 14.9271 16.5754 14.9271C16.9349 14.9271 17.2368 15.1734 17.3249 15.5059L19.444 16.3722C19.8286 16.5124 20.2133 16.5124 20.6159 16.3722C20.7902 16.2841 20.9484 16.1961 21.0886 16.0559C21.3852 14.3322 21.0365 12.7864 20.0048 11.3449L16.5412 9.97354L16.8378 9.23482L16.8989 9.07306C15.8672 8.77469 14.7744 8.69022 13.7068 8.93646L14.4419 9.23482C15.0889 9.46309 15.5437 9.91962 15.8402 10.5361C16.1206 11.1508 16.1368 11.7673 15.8924 12.382L15.1231 14.352C14.8607 14.9667 14.4239 15.407 13.793 15.6533C13.164 15.8995 12.5331 15.8995 11.904 15.6533L9.63031 14.7384C8.69029 14.431 8.77656 14.8121 8.84486 15.5544C8.92754 16.4459 9.18636 17.2925 9.64649 18.0977C10.2594 19.1887 11.2282 20.0676 12.3462 20.6122" fill="#00A0DB"/>
<mask id="mask0_1_128" style="mask-type:luminance" maskUnits="userSpaceOnUse" x="8" y="8" width="14" height="14">
<path d="M14.9326 10.9046C14.7744 10.5343 14.4958 10.2719 14.0932 10.1137L12.3264 9.41096C10.8741 10.0958 9.87835 11.1868 9.28342 12.6984C9.1612 13.0147 9.05695 13.331 8.98685 13.6474C9.31937 13.6474 9.63391 13.7175 9.9844 13.8595L12.2581 14.7743C12.6607 14.9145 13.0274 14.9145 13.394 14.7743C13.7607 14.6341 14.0231 14.3699 14.1813 13.9835L14.9685 12.0315C15.1249 11.6595 15.1069 11.273 14.9326 10.9046ZM12.5546 20.0119L15.4574 21.173C17.4165 21.0328 18.9371 20.1539 20.0569 18.5704C20.0389 18.4302 20.0048 18.272 19.9347 18.0779C19.7603 17.7094 19.4799 17.4273 19.0773 17.2871L16.9438 16.4081C16.8881 16.4369 16.8324 16.4531 16.7839 16.4585C16.7174 16.4764 16.6473 16.4872 16.5754 16.4872C16.1476 16.4872 15.7989 16.1385 15.7989 15.7072C15.7989 15.2758 16.1458 14.9271 16.5754 14.9271C16.9349 14.9271 17.2368 15.1734 17.3249 15.5059L19.444 16.3722C19.8286 16.5124 20.2133 16.5124 20.6159 16.3722C20.7902 16.2841 20.9484 16.1961 21.0886 16.0559C21.3852 14.3322 21.0365 12.7864 20.0048 11.3449L16.5412 9.97354L16.8378 9.23482L16.8989 9.07306C15.8672 8.77469 14.7744 8.69022 13.7068 8.93646L14.4419 9.23482C15.0889 9.46309 15.5437 9.91962 15.8402 10.5361C16.1206 11.1508 16.1368 11.7673 15.8924 12.382L15.1231 14.352C14.8607 14.9667 14.4239 15.407 13.793 15.6533C13.164 15.8995 12.5331 15.8995 11.904 15.6533L9.63031 14.7384C8.69029 14.431 8.77656 14.8121 8.84486 15.5544C8.92754 16.4459 9.18636 17.2925 9.64649 18.0977C10.2594 19.1887 11.2282 20.0676 12.3462 20.6122" fill="white"/>
</mask>
<g mask="url(#mask0_1_128)">
<path d="M21.3851 8.68848H8.69208V21.6116H21.3851V8.68848Z" fill="#00A0DB"/>
</g>
</svg>
